<svg width="83" height="62" viewBox="0 0 83 62" fill="none" xmlns="http://www.w3.org/2000/svg">
<g clip-path="url(#clip0_2077_19499)">
<path d="M7.61262 41.7902C8.30488 44.6375 10.4439 46.1059 13.2612 47.1099C13.2785 47.115 13.2944 47.1238 13.3077 47.1358C14.0719 47.0038 14.8296 46.8446 15.584 46.6535C15.7935 46.6016 15.9256 46.919 15.7166 47.0013C14.8831 47.3336 14.0161 47.5748 13.131 47.7207C13.9972 48.2753 14.9805 48.6258 16.0062 48.7457C16.1317 48.767 16.1228 48.9578 15.9972 48.9835C14.5737 49.2567 13.2267 48.6677 12.2328 47.7403L12.2245 47.7148C11.6683 47.7977 10.911 47.7913 10.5215 48.0617C8.88886 49.2053 11.3047 49.7672 11.9017 49.8964C13.2024 50.1765 14.5319 50.062 15.8488 49.9234C15.878 49.9211 15.907 49.9301 15.9294 49.9487C15.9522 49.9674 15.9665 49.9944 15.9693 50.0237C16.0114 49.9985 16.0614 49.9897 16.1095 49.9991C16.158 50.0093 16.2009 50.0372 16.2298 50.0772C16.259 50.116 16.2727 50.1644 16.2681 50.2128C16.2633 50.2612 16.241 50.3064 16.2053 50.34C16.026 50.5 15.9069 50.7159 15.8679 50.9517C15.8291 51.1871 15.8722 51.4282 15.9902 51.6352C16.3781 51.6144 16.7639 51.562 17.1435 51.4783C17.7228 51.3534 18.2891 51.174 18.8347 50.9427C19.755 50.5695 20.5367 49.8951 21.4436 49.5427C21.4921 49.4917 21.5407 49.4406 21.5923 49.3955C19.8808 48.2762 18.3079 46.9617 16.9055 45.4788C13.7118 45.3411 10.2424 43.5201 7.61262 41.7902Z" fill="white"/>
<path d="M16.4237 44.9584C14.9774 44.417 13.4348 44.075 12.0072 43.4641C10.3627 42.7406 8.78989 41.8675 7.30883 40.8559C7.2568 40.8221 7.19577 40.8045 7.13342 40.8052C7.07119 40.8061 7.01062 40.8258 6.95984 40.8618C6.90941 40.8979 6.87135 40.9485 6.8507 41.0066C6.82929 41.0648 6.82664 41.128 6.84328 41.1875C7.29422 43.8293 9.43432 46.6667 12.2342 47.3194C11.3178 47.1763 10.3778 47.3413 9.56341 47.7884C8.84309 48.2583 8.9917 49.1059 9.55842 49.5891C10.9693 50.7808 13.6288 50.9308 15.4561 50.3144C14.7034 50.9723 14.6488 52.1598 15.9367 52.2408C17.5783 52.345 20.7389 51.143 21.6987 49.7212C21.7537 49.6712 21.8061 49.6185 21.8557 49.5632M21.4351 49.5207C20.5282 49.8731 19.7438 50.5425 18.8264 50.9207C18.2808 51.152 17.7145 51.3314 17.1352 51.4563C16.756 51.5412 16.3704 51.5943 15.9825 51.6152C15.8659 51.4073 15.8243 51.1657 15.8646 50.9303C15.9039 50.6945 16.0241 50.4789 16.2048 50.3202C16.2405 50.287 16.2629 50.2421 16.2679 50.1939C16.2724 50.1456 16.2587 50.0974 16.2296 50.0585C16.1993 50.02 16.157 49.9926 16.1093 49.9804C16.0674 49.9682 16.0599 49.9671 15.9992 49.9482L15.9325 49.9253C15.9064 49.9131 15.8779 49.9063 15.8489 49.9056C14.5159 50.053 13.2053 50.1602 11.8947 49.8787C11.2977 49.7495 8.8819 49.1874 10.5142 48.0428C10.8994 47.7703 11.6613 47.7799 12.2186 47.6967L12.227 47.7222C13.2205 48.6485 14.5674 49.2376 15.9924 48.965C16.1115 48.9414 16.1262 48.7464 16.0003 48.7276C14.9747 48.6077 13.9913 48.2572 13.1251 47.7026C14.0101 47.5561 14.877 47.3148 15.7106 46.9831C15.9204 46.8994 15.7933 46.5933 15.5789 46.6339C14.8234 46.8253 14.0674 46.9899 13.3018 47.1177C13.2888 47.1053 13.2732 47.096 13.256 47.0904C10.4364 46.1048 8.30108 44.6223 7.60744 41.7708C10.2434 43.4939 13.7125 45.336 16.8965 45.4511C18.2985 46.9344 19.8715 48.249 21.5833 49.3679C21.532 49.414 21.4838 49.4661 21.4349 49.5161L21.4351 49.5207Z" fill="#3B2456"/>
<path d="M48.4528 32.1944C47.933 32.3124 47.5718 32.6769 47.1575 32.9695C47.2034 33.5985 47.0623 34.228 46.7516 34.7801C46.4404 35.3319 45.9735 35.782 45.4087 36.0745C45.265 36.139 45.1046 35.9741 45.2079 35.8476C45.7663 35.1686 46.3254 34.4589 46.4643 33.5915C46.5206 33.3617 46.5322 33.1235 46.4985 32.8899C46.238 32.3572 45.7382 32.8632 45.5323 33.0244C45.1435 33.3439 44.745 33.6525 44.3555 33.9699C44.2339 34.0659 44.0551 33.9141 44.1555 33.8003C44.5081 33.3623 45.7708 31.8263 46.5598 32.0279C47.5653 29.991 47.6185 27.4699 47.4533 25.2022C45.9145 27.5775 44.8999 30.0918 43.7835 32.6827C43.7405 34.6207 43.5386 36.553 43.1798 38.4602C43.0705 39.094 42.9492 39.7294 42.8157 40.3664C43.7939 40.3125 44.7428 40.3832 45.7278 40.0629C46.1456 39.9265 47.5978 39.4431 47.7561 38.9875L46.9163 37.4461L46.1947 37.469C45.8246 37.5439 45.4667 37.6706 45.132 37.8453C45.0293 37.894 44.9151 37.7729 44.9928 37.6876C45.2697 37.3779 45.6188 37.1401 46.0092 36.9953C46.0092 36.9953 46.0044 36.9804 46.0348 36.9717C47.2644 36.1006 48.8389 35.7886 49.5603 34.3342C50.0269 33.4209 49.9311 31.8598 48.4528 32.1944Z" fill="white"/>
<path d="M42.6788 40.993C44.5917 41.4561 47.7798 40.4801 48.6645 38.8901C49.0935 38.116 48.585 37.3719 47.8322 37.0375C47.7376 36.9981 47.6405 36.965 47.5415 36.9386C49.1888 36.1742 50.7476 34.6555 50.528 32.9657C50.3078 31.2995 48.5009 31.2517 47.3614 32.0757C47.8627 31.3343 47.9694 30.3718 48.043 29.5222C48.2238 27.7223 48.2408 25.9108 48.0937 24.1096C48.077 24.0443 48.0424 23.9848 47.9937 23.9379C47.9439 23.8898 47.881 23.8573 47.8127 23.8443C47.746 23.8296 47.6763 23.8348 47.6124 23.8593C47.5484 23.8825 47.4923 23.9232 47.4505 23.9767C45.9394 26.114 44.5273 28.4996 43.7791 31.0091" fill="#3B2456"/>
<path d="M48.4819 32.1888C47.962 32.3068 47.6005 32.6738 47.1855 32.9642C47.232 33.593 47.0908 34.2224 46.7792 34.7738C46.4687 35.3256 46.002 35.7756 45.4375 36.0679C45.287 36.1334 45.1333 35.9675 45.2359 35.8424C45.7783 35.1651 46.3441 34.4543 46.4934 33.5859C46.5494 33.3558 46.5605 33.1174 46.5261 32.8836C46.2557 32.353 45.7573 32.8598 45.5611 33.0177C45.1714 33.3387 44.7741 33.6468 44.3831 33.9635C44.2619 34.0606 44.0842 33.9084 44.1831 33.7939C44.5367 33.3626 45.8015 31.833 46.5885 32.0212C47.5933 29.9858 47.6438 27.4491 47.4824 25.1966C45.9421 27.5712 44.9286 30.0851 43.8115 32.6774C43.7689 34.6151 43.5669 36.5471 43.2074 38.4539C43.0982 39.0877 42.9765 39.7235 42.8425 40.3615C43.8215 40.3062 44.7698 40.3783 45.7558 40.0576C46.1308 39.9352 47.349 39.5306 47.7024 39.1205L48.0038 38.7872C48.396 38.2165 48.2725 37.5839 47.5857 37.5063L46.9361 37.4411L46.2316 37.4621C45.8618 37.538 45.5041 37.665 45.1693 37.8394C45.0663 37.8871 44.9523 37.7669 45.0297 37.6806C45.3074 37.3714 45.657 37.1339 46.0476 36.989C46.0552 36.9725 46.0584 36.9714 46.0584 36.9714L46.0638 36.9696C47.2945 36.0982 48.8678 35.7866 49.6167 34.3291C50.0545 33.4146 49.9587 31.8535 48.4819 32.1888Z" fill="white"/>
<path d="M33.0097 20.4361C33.0097 20.4361 34.8272 23.7052 33.9744 27.6158L39.058 29.025C39.058 29.025 39.6285 21.3805 33.0097 20.4361Z" fill="#FA1F87"/>
<path d="M34.5452 27.2651L38.5839 28.3788C38.5641 27.3022 38.3833 26.2352 38.0473 25.213C37.3048 23.0398 35.8994 21.6619 33.8621 21.1079C34.3374 22.3208 35.0026 24.6203 34.5452 27.2651ZM39.5105 29.6559L33.3902 27.965L33.4879 27.5163C34.2894 23.8409 32.5903 20.7057 32.5727 20.6738L32.0975 19.8132L33.0793 19.9519C35.9803 20.3661 38.0224 22.0857 38.9817 24.9268C39.4194 26.2567 39.6121 27.6553 39.5505 29.0557L39.5105 29.6559Z" fill="#3B2456"/>
<path d="M17.4222 38.7813L19.1982 33.8273C15.4983 32.2694 13.8625 28.907 13.8625 28.907C10.8261 34.8408 17.4222 38.7813 17.4222 38.7813Z" fill="#FA1F87"/>
<path d="M13.9264 29.9846C13.2095 31.9613 13.5305 33.8999 14.8855 35.7558C15.5306 36.6183 16.3019 37.38 17.174 38.0162L18.5821 34.0889C16.1461 32.9346 14.6443 31.0726 13.9264 29.9846ZM17.166 39.2014C15.9812 38.4447 14.9442 37.4821 14.1045 36.3595C12.3277 33.9414 12.0937 31.2887 13.4234 28.6869L13.8736 27.8071L14.3068 28.6908C14.3179 28.7248 15.9164 31.9115 19.3915 33.3725L19.8161 33.551L17.6806 39.5067L17.166 39.2014Z" fill="#3B2456"/>
<path d="M34.2329 52.2083C29.5476 52.3312 24.9197 51.2225 20.8188 48.9947C19.2485 48.1392 17.7497 47.1066 16.5995 45.744C15.008 43.8416 14.1803 41.4208 14.2741 38.9426C14.3871 36.4655 15.414 34.1111 17.1593 32.3277C18.4739 30.9944 20.831 31.0823 22.6909 31.2996C24.5712 31.5145 26.3041 32.4032 27.5647 33.7989C28.2661 31.6911 29.5034 29.8627 31.3194 28.5547C33.1355 27.2468 35.4541 26.5993 37.6637 26.9255C39.8733 27.2518 41.9392 28.5832 43.0014 30.537C43.825 32.0508 44.0259 33.843 43.8219 35.5536C43.618 37.2643 43.0318 38.9152 42.3561 40.5062C41.7839 41.8857 41.1017 43.2182 40.316 44.4909C39.3503 46.0215 38.1886 47.4165 37.0282 48.8157C36.104 49.9359 35.1588 51.0934 34.2329 52.2083Z" fill="#FA1F87"/>
<path opacity="0.25" d="M43.4159 31.8034C42.7916 29.5821 41.1708 27.5512 38.9957 26.6699C38.7086 26.5574 38.4143 26.4636 38.1146 26.3891C38.0483 26.3747 37.9795 26.3747 37.913 26.3889C37.8465 26.4031 37.7837 26.4313 37.7289 26.4716L37.669 26.3643C37.2633 26.4103 36.8611 26.4836 36.465 26.5836C36.4688 26.5952 36.4729 26.6079 36.4771 26.6207C36.51 26.678 36.543 26.7354 36.5752 26.7942C36.3059 26.5911 36.0211 26.4092 35.7231 26.2502C35.6521 26.2209 35.5724 26.2187 35.4995 26.244C35.4266 26.2693 35.3656 26.3204 35.3281 26.3874C35.2907 26.4538 35.2782 26.5311 35.2929 26.6055C35.3076 26.6798 35.3486 26.7464 35.4084 26.7934C35.8927 27.2389 36.3174 27.7444 36.6722 28.2974C36.7607 28.4305 36.8482 28.564 36.9325 28.6985C36.9774 28.7708 37.0201 28.8437 37.064 28.9163C37.064 28.9163 37.0804 28.945 37.0878 28.9567L37.1615 29.0841C37.326 29.3797 37.4729 29.6846 37.6017 29.9973C37.6631 30.1452 37.7215 30.2953 37.7735 30.4474C37.7999 30.5281 37.8262 30.6087 37.8525 30.6893L37.8871 30.7955L37.8976 30.8274C37.9003 30.8359 37.9041 30.8475 37.9097 30.8645C37.9305 30.9282 37.9512 30.9918 37.9634 31.0583L37.971 31.0816C37.9943 31.1527 38.0089 31.2266 38.0254 31.2987C38.0743 31.4996 38.1173 31.7025 38.1541 31.9073C38.2949 32.7121 38.3672 33.5276 38.3701 34.3452C38.3719 34.5067 38.3694 34.7318 38.3643 34.9414C38.3583 35.17 38.3484 35.3975 38.3364 35.6257C38.3307 35.7356 38.3255 35.843 38.3234 35.9493C38.2879 36.2216 38.2462 36.4936 38.196 36.7648C38.1458 37.036 38.0915 37.298 38.0296 37.5625C38 37.6896 37.9682 37.8174 37.9354 37.9455L37.9036 38.0733L37.8477 38.2653C37.6989 38.7781 37.5249 39.2828 37.3258 39.7791C37.1266 40.2755 36.9022 40.7708 36.6525 41.2649C36.5281 41.5083 36.3979 41.7465 36.2621 41.9795L36.2209 42.0528L36.2122 42.0661L36.1113 42.2365C36.0383 42.3578 35.9646 42.477 35.8884 42.5958C35.3077 43.5102 34.6474 44.3726 33.9151 45.1729C33.828 45.2694 33.7407 45.3648 33.6455 45.4617L33.5081 45.604L33.4717 45.6417L33.4136 45.6994C33.2076 45.9037 32.9963 46.1037 32.7796 46.2997C32.3503 46.6884 31.8978 47.051 31.4246 47.3856C30.9724 47.7105 30.4926 47.9955 29.9907 48.2376C29.7268 48.366 29.4582 48.4826 29.185 48.5875C29.0521 48.6379 28.9192 48.6848 28.7842 48.7288L28.5796 48.7956C28.481 48.8278 28.5078 48.8191 28.4079 48.8435C27.1973 49.1442 25.9485 49.2599 24.7048 49.1868C24.055 49.1499 23.409 49.0918 22.7631 49.0161C22.1171 48.9404 21.4987 48.8147 20.8765 48.6843C20.5591 48.6199 20.2406 48.5523 19.9268 48.4845C19.846 48.4744 19.7642 48.4966 19.6993 48.5459C19.6343 48.5953 19.5915 48.6678 19.5801 48.748C19.5713 48.828 19.5937 48.9081 19.6427 48.9718C19.6918 49.0356 19.7637 49.0781 19.8437 49.0906C20.8408 49.3524 21.8443 49.612 22.8535 49.8345C22.8631 49.8986 22.8926 49.958 22.9379 50.0044C22.9833 50.0509 23.0422 50.082 23.1064 50.0936C23.8499 50.2467 24.5933 50.4033 25.3349 50.5723C25.6945 50.6534 26.0501 50.7546 26.4056 50.8523C26.7835 50.9567 27.1745 51.0287 27.5566 51.1095C29.0269 51.4117 30.5024 51.7228 31.9879 51.9519C32.7005 52.061 33.4665 52.1234 34.1703 51.9441C34.883 51.758 35.5231 51.3615 36.0055 50.8073C36.4425 50.3299 36.773 49.7734 37.1222 49.2378L38.3608 47.334C39.9042 44.9618 41.547 42.5996 42.634 39.9771C43.6914 37.409 44.1752 34.5254 43.4159 31.8034Z" fill="#232364"/>
<path d="M34.122 52.6602C34.246 52.7489 34.3999 52.7866 34.5518 52.7655C34.7036 52.7443 34.8417 52.666 34.9374 52.5467C37.0773 50.1642 39.2292 47.7673 40.9745 45.0767C42.6141 42.5452 43.905 39.7483 44.3787 36.7647C44.8697 33.6745 44.4358 30.2532 42.1043 27.9809C41.0458 26.9536 39.6479 26.3318 38.1901 26.1042C36.5816 25.8542 34.9267 26.1126 33.4044 26.6717C31.9689 27.199 30.5637 27.997 29.4782 29.0806C29.1892 29.3487 28.9328 29.6496 28.7144 29.9769C28.5144 30.2925 28.3334 30.6194 28.1722 30.956C27.8815 31.5837 27.6925 32.2526 27.6123 32.9378C27.3987 32.6917 27.1655 32.4631 26.9149 32.2542C26.3303 31.7844 25.6783 31.4036 24.98 31.1243C23.539 30.5264 21.9545 30.3465 20.41 30.6055C18.8126 30.8681 17.3268 31.5941 16.1403 32.692C15.0707 33.7122 14.2878 34.9914 13.8694 36.4019C13.4388 37.8221 13.3411 39.3195 13.5839 40.7791C13.869 42.3443 14.4844 43.8301 15.3899 45.1393C17.1821 47.7826 19.9574 49.6058 22.9388 50.6948C26.1988 51.8854 29.6849 52.2507 33.1358 52.4243M43.3954 33.8175C43.4379 34.5711 43.4093 35.3275 43.31 36.0766C43.2238 36.7669 43.0932 37.4512 42.9189 38.1254C42.8679 38.3323 42.8598 38.3513 42.7999 38.5564C42.7497 38.7294 42.6969 38.9005 42.6415 39.0697C42.5301 39.4114 42.4093 39.7495 42.279 40.084C42.0263 40.7372 41.7396 41.3769 41.4258 42.0066C41.2634 42.3297 41.0941 42.6488 40.9179 42.9639C40.7478 43.2672 40.6281 43.4706 40.4282 43.7954C38.8268 46.4002 36.8209 48.7248 34.7819 51.0027L34.4838 51.3349C32.8009 51.2641 31.1261 51.1708 29.4583 50.9789C28.5961 50.8798 27.7434 50.7518 26.8943 50.5875C26.4903 50.5095 26.0883 50.4223 25.6885 50.3257C25.3016 50.2301 25.0843 50.1707 24.6862 50.0552C23.954 49.8407 23.2346 49.5864 22.5311 49.2931C22.1769 49.1449 21.8267 48.9852 21.4808 48.8139C21.1554 48.6524 20.8134 48.4692 20.5712 48.3263C19.9276 47.9502 19.3138 47.5264 18.7348 47.0586C18.4428 46.8228 18.1624 46.5749 17.8934 46.3151L17.8765 46.2994C17.8688 46.2925 17.8616 46.285 17.8549 46.2771C17.8274 46.2508 17.8006 46.2232 17.7728 46.1959C17.7054 46.1275 17.639 46.0587 17.5724 45.9888C17.4407 45.8494 17.3117 45.7071 17.1853 45.562C16.9474 45.2859 16.7213 45.0003 16.5073 44.7054C16.4071 44.5654 16.3087 44.4238 16.2143 44.2797C16.1623 44.2003 16.111 44.1196 16.0597 44.0388L15.9994 43.9411C15.9932 43.922 15.9819 43.9127 15.9784 43.9056C15.9749 43.8986 15.9728 43.8887 15.9594 43.8731C15.5871 43.2302 15.2803 42.552 15.0435 41.8481C15.02 41.776 14.9964 41.7038 14.9742 41.6359C14.9593 41.5902 14.9448 41.5456 14.9299 41.5L14.916 41.4575C14.8678 41.2736 14.824 41.0883 14.7855 40.9013C14.7179 40.5679 14.6692 40.2309 14.6398 39.8919C14.6258 39.7329 14.6166 39.5738 14.6121 39.4147C14.6101 39.3614 14.6095 39.3088 14.6086 39.2551C14.6062 39.2477 14.6081 39.2282 14.6071 39.2144C14.6082 39.1377 14.6092 39.061 14.6096 38.9787C14.6212 38.6329 14.6523 38.288 14.7027 37.9455C14.7516 37.6129 14.8198 37.2832 14.9068 36.9582C14.9127 36.9398 14.9392 36.843 14.9469 36.8194C14.9726 36.7347 14.9997 36.6507 15.0279 36.5664C15.0835 36.3991 15.1455 36.2332 15.2118 36.0695C15.338 35.7596 15.4828 35.4574 15.6456 35.1646L15.6923 35.0824L15.7306 35.0182C15.7726 34.9505 15.8148 34.8838 15.8585 34.8179C15.955 34.6705 16.0563 34.5267 16.1622 34.3864C16.2642 34.2522 16.369 34.1228 16.4791 33.9953C16.5259 33.9424 16.5727 33.8897 16.6208 33.8375L16.7082 33.742L16.7409 33.7078L16.7725 33.6776C17.0318 33.4273 17.3082 33.195 17.5996 32.9825C17.7409 32.8812 17.8903 32.7831 18.0328 32.6932C18.1373 32.6285 18.2776 32.5498 18.4582 32.4568C18.786 32.2904 19.1251 32.1471 19.473 32.0281C19.5641 31.9984 19.6563 31.9683 19.7484 31.9382L19.8245 31.9134L19.9038 31.8875C20.0908 31.8394 20.2798 31.7976 20.4699 31.7626C20.8413 31.695 21.217 31.654 21.5941 31.6399L21.7564 31.6362C21.843 31.6362 21.9313 31.6379 22.0178 31.6414C22.2086 31.6484 22.3993 31.6625 22.5895 31.6897C22.9295 31.7299 23.2665 31.7917 23.5983 31.8747L23.6172 31.8779L23.636 31.8847L23.7663 31.9209C23.8438 31.9438 23.9204 31.968 23.9975 31.9934C24.1703 32.0544 24.3372 32.1115 24.5043 32.1803C24.8205 32.3097 25.1287 32.4573 25.4274 32.6223L25.5241 32.6753L25.5592 32.6955C25.636 32.742 25.7083 32.789 25.789 32.8366C25.9412 32.9325 26.092 33.0312 26.2413 33.1328C26.522 33.3242 26.7936 33.5315 27.0627 33.7384C27.3199 33.9336 27.5601 34.1498 27.781 34.3847C27.8434 34.4545 27.9305 34.4978 28.0244 34.5059C28.1183 34.5139 28.212 34.4862 28.2863 34.4283C28.3607 34.3703 28.4101 34.2865 28.4246 34.1939C28.439 34.1014 28.4174 34.0071 28.3641 33.9302C28.3135 33.8551 28.2622 33.7814 28.2109 33.7077C28.2368 33.1382 28.3766 32.5788 28.6221 32.0621C28.7516 31.7783 28.9034 31.505 29.0761 31.2446C29.2705 30.9731 29.4821 30.7141 29.7098 30.4693C29.9242 30.2236 30.1542 29.9916 30.3984 29.7748C30.6564 29.5446 30.9264 29.328 31.2072 29.1257C31.3445 29.0269 31.4842 28.9319 31.625 28.8402C31.7002 28.7909 31.7761 28.7439 31.852 28.6968L31.9508 28.6363L32.0017 28.6069C32.3291 28.4225 32.6612 28.2483 33.0023 28.0912C33.6848 27.7717 34.4006 27.5283 35.1364 27.3652C35.5133 27.2851 35.8948 27.2285 36.2785 27.1957C36.4657 27.1807 36.6533 27.1711 36.8416 27.1668C36.8416 27.1668 36.9858 27.169 37.0025 27.1694C37.099 27.1708 37.194 27.1751 37.2894 27.1804C37.6332 27.2006 37.9752 27.2435 38.313 27.3089C38.4513 27.3366 38.5902 27.3664 38.7262 27.4019L38.8072 27.4247L38.9162 27.4573C39.0071 27.4851 39.0976 27.5154 39.1832 27.5486C39.4971 27.6577 39.8022 27.7907 40.0954 27.9461L40.1687 27.9855C40.1804 27.9923 40.2268 28.0182 40.2388 28.0261C40.3121 28.0691 40.3861 28.1142 40.4558 28.1607C40.5988 28.255 40.738 28.3544 40.8733 28.459C41.002 28.5591 41.1257 28.6655 41.2458 28.7755C41.2744 28.8014 41.3018 28.8276 41.3294 28.8538L41.3431 28.867C41.3456 28.8744 41.3574 28.8812 41.3669 28.8921C41.4321 28.9613 41.4994 29.0297 41.5632 29.1017C41.7874 29.351 41.9929 29.6164 42.178 29.8956C42.2205 29.9604 42.2617 30.0245 42.302 30.09L42.3163 30.1123L42.324 30.1357L42.3811 30.2345C42.4648 30.3857 42.5429 30.534 42.6184 30.6961C42.7654 31.0092 42.8923 31.3313 42.9984 31.6606C43.0593 31.8474 43.0841 31.9414 43.1226 32.0992C43.1699 32.2916 43.2109 32.486 43.245 32.6816C43.3137 33.0582 43.3607 33.4385 43.3858 33.8206L43.3954 33.8175Z" fill="#3B2456"/>
<path d="M28.9754 36.9392C28.7975 36.9973 28.6203 37.068 28.4381 37.131C28.4769 37.2498 28.5157 37.3687 28.5656 37.4851C28.7619 37.956 29.0501 38.3832 29.4135 38.7426C29.7769 39.1019 30.2085 39.3864 30.6836 39.5796C31.1588 39.7728 31.6681 39.871 32.1826 39.8687C32.6971 39.8663 33.2066 39.7634 33.6821 39.5658C34.1575 39.3683 34.5896 39.0802 34.9537 38.7176C35.3178 38.355 35.6068 37.9252 35.804 37.4527C36.0013 36.9803 36.1032 36.4744 36.1036 35.964C36.1041 35.4536 36.0032 34.9486 35.8068 34.4779C35.6496 34.1019 35.4333 33.7532 35.166 33.4447C33.4931 35.104 31.1185 36.1939 28.9754 36.9392Z" fill="#1A1A1A"/>
<path d="M28.975 36.9391L28.6471 37.0567C28.6826 37.1732 28.724 37.2878 28.7711 37.4002C28.9563 37.8442 29.228 38.2472 29.5708 38.5861C29.9135 38.925 30.3206 39.1931 30.7687 39.3753C31.2168 39.5575 31.697 39.6502 32.1822 39.6479C32.6674 39.6457 33.148 39.5486 33.5965 39.3622C34.502 38.9857 35.2217 38.2687 35.5976 37.3686C35.9734 36.4686 35.9746 35.4593 35.6007 34.5627C35.4545 34.2115 35.2537 33.8856 35.0056 33.5967C33.3426 35.1705 31.0511 36.2168 28.975 36.9391Z" fill="white"/>
<path d="M30.9849 36.1487C30.9973 36.2859 31.0308 36.4203 31.0841 36.5472C31.225 36.8842 31.4952 37.1512 31.8353 37.2897C32.1754 37.4281 32.5578 37.4266 32.8984 37.2856C33.239 37.1441 33.5096 36.8746 33.6511 36.5362C33.7925 36.1978 33.793 35.8183 33.6525 35.4811C33.5662 35.2732 33.4295 35.0899 33.2543 34.9476C32.5286 35.403 31.77 35.8045 30.9849 36.1487Z" fill="#3B2456"/>
<path d="M31.2894 36.8711C31.3278 36.9627 31.4013 37.0353 31.4938 37.0729C31.5863 37.1105 31.6903 37.1101 31.7829 37.0718C31.8752 37.0329 31.9486 36.9596 31.987 36.8676C32.0253 36.7757 32.0257 36.6726 31.9878 36.5809C31.9689 36.5356 31.941 36.4945 31.906 36.4599C31.8709 36.4253 31.8293 36.3981 31.7835 36.3796C31.7377 36.361 31.6886 36.3516 31.6391 36.3519C31.5895 36.3523 31.5405 36.3623 31.4947 36.3814C31.4024 36.4199 31.329 36.493 31.2905 36.5848C31.2521 36.6765 31.2516 36.7795 31.2894 36.8711Z" fill="white"/>
<path d="M25.9938 38.2766C25.0493 38.8808 24.1707 39.3707 23.0627 39.6009C22.5508 39.7069 21.9552 39.778 21.4913 39.9224C21.2382 40.001 20.9783 40.056 20.715 40.0865C20.7532 40.408 20.8355 40.7224 20.9597 41.0213C21.3233 41.8924 22.0215 42.5825 22.9007 42.9399C23.7799 43.2973 24.7682 43.2927 25.6481 42.927C26.5275 42.5611 27.2266 41.8646 27.5917 40.9904C27.9568 40.1162 27.958 39.1358 27.5951 38.2647C27.4675 37.9608 27.2977 37.6763 27.0905 37.4195C26.7484 37.7337 26.3816 38.0203 25.9938 38.2766Z" fill="#1A1A1A"/>
<path d="M25.9938 38.2768C25.0494 38.881 24.1708 39.371 23.0627 39.6011C22.5508 39.7071 21.9552 39.7783 21.4914 39.9226C21.3034 39.9815 21.1116 40.0272 20.9173 40.0596C20.9529 40.3636 21.0304 40.6611 21.1478 40.9437C21.4909 41.7652 22.1494 42.4159 22.9786 42.753C23.8078 43.0902 24.7397 43.086 25.5697 42.7415C26.3996 42.3966 27.0593 41.7395 27.4037 40.9146C27.7481 40.0898 27.749 39.1648 27.4062 38.3431C27.2876 38.0606 27.1301 37.7958 26.9383 37.5564C26.6415 37.819 26.3258 38.0598 25.9938 38.2768Z" fill="white"/>
<path d="M23.8197 39.3921C23.8359 39.4783 23.861 39.5625 23.8947 39.6435C24.0239 39.9524 24.2717 40.1971 24.5835 40.3239C24.8954 40.4506 25.2459 40.4491 25.5581 40.3196C25.87 40.1897 26.1178 39.9424 26.2471 39.6322C26.3764 39.3221 26.3765 38.9742 26.2476 38.6653C26.187 38.5219 26.1001 38.391 25.9912 38.2793C25.2727 38.7369 24.5922 39.1294 23.8197 39.3921Z" fill="#3B2456"/>
<path d="M24.7201 39.7282C24.7375 39.7698 24.7465 39.8145 24.7465 39.8596C24.7466 39.9047 24.7376 39.9495 24.7202 39.9913C24.7027 40.0331 24.6772 40.071 24.645 40.103C24.6128 40.1351 24.5746 40.1606 24.5326 40.1781C24.4477 40.2132 24.3524 40.2137 24.2676 40.1793C24.1828 40.1449 24.1154 40.0784 24.0802 39.9945C24.0456 39.9106 24.046 39.8164 24.0812 39.7323C24.1164 39.6482 24.1835 39.5811 24.268 39.5457C24.31 39.5282 24.3549 39.519 24.4003 39.5187C24.4457 39.5184 24.4907 39.5269 24.5327 39.5438C24.5746 39.5608 24.6128 39.5858 24.6449 39.6174C24.6771 39.649 24.7026 39.6867 24.7201 39.7282Z" fill="white"/>
<path d="M36.488 32.3417C36.488 32.3417 30.6585 36.5215 27.9278 36.7634C27.9278 36.7634 23.4611 39.8266 19.6257 40.24C19.6257 40.24 22.6165 41.0489 27.867 37.3798C27.867 37.3798 34.3108 35.7251 36.488 32.3417Z" fill="#3B2456"/>
<path d="M36.1534 30.3216C36.1534 30.3216 34.3068 28.5757 33.219 29.3219C32.1312 30.068 29.2778 34.8558 29.2778 34.8558C29.2778 34.8558 29.7054 31.6548 31.892 29.2301C34.0786 26.8054 35.7345 29.3651 36.1534 30.3216Z" fill="#3B2456"/>
<path d="M26.1416 36.9463C26.1416 36.9463 20.9293 35.8468 20.1454 36.6088C19.3615 37.3708 19.9353 38.4389 19.9353 38.4389C19.9353 38.4389 19.868 37.3101 20.576 37.1072C21.2839 36.9043 26.1416 36.9463 26.1416 36.9463Z" fill="#3B2456"/>
<path d="M35.7937 47.0051C35.7937 47.0051 32.506 46.9897 32.2252 49.0894C32.2252 49.0894 30.7483 48.1494 29.3095 49.6689C29.5345 49.2276 29.8748 48.8539 30.2948 48.5873C30.7147 48.3206 31.1986 48.1708 31.6957 48.1536C31.6957 48.1536 33.3916 46.0382 35.7937 47.0051Z" fill="#3B2456"/>
<path d="M25.6308 45.8125C27.5385 46.06 30.9087 44.9117 33.3664 43.1829C36.1067 41.2598 37.1596 39.4482 37.1596 39.4482C37.1596 39.4482 37.2965 41.6183 36.9703 43.1504C36.6441 44.6825 36.6935 45.135 35.0915 45.1013C33.4895 45.0676 31.1132 44.7863 28.7832 45.8745C26.4531 46.9627 26.5623 47.7185 26.4195 47.5608C26.3247 47.4555 25.7417 46.6499 25.359 46.1278C25.463 46.0348 25.5543 45.9288 25.6308 45.8125Z" fill="#3B2456"/>
<path d="M35.1035 44.6404C34.8863 44.6361 34.6542 44.6262 34.4104 44.6165C33.562 44.567 32.711 44.5702 31.8624 44.6262C32.4742 44.3067 33.065 43.9487 33.6311 43.5545C34.7725 42.7661 35.8105 41.8394 36.7211 40.7961C36.7204 41.5532 36.6497 42.3091 36.5097 43.0541C36.4822 43.1805 36.4574 43.3001 36.435 43.4131C36.2666 44.2338 36.2001 44.4516 35.9853 44.5452C35.828 44.6189 35.5353 44.6451 35.1035 44.6404ZM26.0635 46.2994C26.4466 46.3036 26.8296 46.2768 27.2086 46.2192C26.9386 46.4 26.6889 46.6091 26.4638 46.8428C26.3448 46.6961 26.214 46.5133 26.0652 46.3046L26.0635 46.2994Z" fill="white"/>
<path d="M35.359 39.9759C35.359 39.9759 37.1868 38.6747 38.1965 39.0333C39.2063 39.3919 38.919 39.9248 38.919 39.9248C38.919 39.9248 38.0852 38.8629 35.359 39.9759Z" fill="#3B2456"/>
<path d="M29.4272 45.4326C29.4272 45.4326 27.2808 46.0158 26.7419 46.544C26.203 47.0722 26.188 47.4728 26.1996 47.6464C26.2091 47.7589 26.2295 47.8702 26.2606 47.9788C26.2606 47.9788 25.9719 47.9038 26.0051 48.0057C26.0384 48.1076 26.3747 48.4371 26.4363 48.3571C26.498 48.2771 26.2351 47.9694 26.7025 47.2802C27.1699 46.5909 29.0465 45.6356 29.0465 45.6356L29.4272 45.4326Z" fill="#3B2456"/>
<path d="M37.0169 42.4357C37.0169 42.4357 36.044 43.3886 34.0564 44.0949C34.0564 44.0949 35.2333 43.9633 36.6643 43.1498L37.0169 42.4357Z" fill="#3B2456"/>
</g>
<g clip-path="url(#clip1_2077_19499)">
<path d="M23.7543 23.4006C23.0608 26.7906 24.6068 29.4358 27.1111 31.9262C27.127 31.9403 27.1395 31.9577 27.1477 31.9772C28.0305 32.2208 28.92 32.4321 29.8221 32.6077C30.0721 32.6577 30.0534 33.0632 29.7887 33.0459C28.7311 32.9814 27.6836 32.8027 26.6646 32.5132C27.3108 33.5415 28.1848 34.4109 29.2202 35.0551C29.3435 35.141 29.238 35.3403 29.0909 35.3046C27.4327 34.8801 26.2902 33.5729 25.6953 32.082L25.6992 32.0506C25.0633 31.8592 24.2576 31.4713 23.7054 31.5641C21.3858 31.964 23.6837 33.7801 24.2564 34.2187C25.5049 35.1724 26.9828 35.7192 28.4593 36.2339C28.4917 36.2462 28.5181 36.2704 28.5327 36.3015C28.5476 36.333 28.5493 36.3691 28.5376 36.4018C28.5952 36.396 28.653 36.4118 28.6997 36.446C28.7464 36.4814 28.7782 36.5327 28.7889 36.59C28.8005 36.6462 28.7908 36.7047 28.7616 36.7541C28.7321 36.8035 28.6855 36.8404 28.6305 36.8585C28.3584 36.9391 28.1225 37.1098 27.9622 37.342C27.8023 37.574 27.727 37.8532 27.7488 38.1337C28.1737 38.3068 28.6122 38.4449 29.0598 38.5466C29.7415 38.7047 30.4367 38.7981 31.136 38.8256C32.3069 38.8901 33.4813 38.5631 34.6275 38.6431C34.705 38.6129 34.7826 38.5828 34.8605 38.5607C33.5955 36.5036 32.5768 34.3078 31.825 32.0179C28.4826 30.2634 25.693 26.572 23.7543 23.4006Z" fill="white"/>
<path d="M31.5722 31.2195C30.2996 29.9133 28.8239 28.7716 27.6063 27.4006C26.2137 25.8 24.973 24.0757 23.8999 22.2497C23.8614 22.1874 23.8051 22.1379 23.7381 22.1072C23.6712 22.0769 23.5965 22.0675 23.5242 22.0804C23.4521 22.0936 23.386 22.1284 23.3347 22.1801C23.2825 22.2315 23.2479 22.2977 23.2357 22.3696C22.3879 25.4187 23.246 29.5268 25.9085 31.6331C25.0016 31.019 23.9144 30.7223 22.8194 30.79C21.8134 30.9295 21.5456 31.9097 21.9078 32.7111C22.8152 34.6943 25.5807 36.193 27.8429 36.4541C26.7078 36.7781 26.0518 38.0191 27.3868 38.7539C29.0879 39.6914 33.0693 39.9981 34.8101 38.9622C34.894 38.9364 34.9765 38.9065 35.0574 38.8724M34.6295 38.6154C33.4833 38.5354 32.3085 38.8557 31.1381 38.798C30.4388 38.7705 29.7436 38.6771 29.0619 38.519C28.6141 38.4188 28.1754 38.2815 27.7506 38.1086C27.7307 37.8278 27.8078 37.5488 27.9693 37.3176C28.13 37.0855 28.3669 36.9157 28.6398 36.8371C28.6947 36.8196 28.7412 36.783 28.7708 36.734C28.7999 36.6846 28.8096 36.6262 28.798 36.57C28.785 36.5137 28.7537 36.4631 28.7088 36.426C28.6702 36.3919 28.6628 36.387 28.6074 36.3362L28.5476 36.2782C28.5259 36.252 28.4989 36.2304 28.4683 36.2151C26.9701 35.7017 25.5161 35.1566 24.2578 34.1963C23.685 33.7578 21.3873 31.9415 23.707 31.5403C24.2557 31.4431 25.0648 31.8368 25.702 32.0284L25.698 32.0598C26.2932 33.5494 27.4356 34.8565 29.095 35.2826C29.2341 35.3173 29.3479 35.1163 29.2229 35.0329C28.1876 34.3887 27.3135 33.5193 26.6673 32.491C27.6865 32.7798 28.734 32.9584 29.7914 33.0236C30.0577 33.0397 30.0759 32.6488 29.8265 32.5843C28.9231 32.4085 28.0326 32.2038 27.1504 31.955C27.1428 31.9352 27.1308 31.9174 27.1153 31.9028C24.5993 29.4309 23.0644 26.7725 23.7585 23.3773C25.7071 26.5446 28.4859 30.2584 31.8292 31.9838C32.5804 34.274 33.5991 36.47 34.8647 38.5267C34.7867 38.5502 34.7089 38.5816 34.6315 38.6104L34.6295 38.6154Z" fill="#3B2456"/>
<path d="M72.2112 33.7035C71.5965 33.568 71.0272 33.7756 70.4374 33.8796C70.1698 34.5746 69.7023 35.1761 69.0925 35.6095C68.4824 36.0424 67.7571 36.2881 67.0066 36.3164C66.8206 36.313 66.7322 36.0561 66.9062 35.973C67.8445 35.5287 68.7989 35.0519 69.3838 34.1952C69.5596 33.978 69.6919 33.7295 69.7734 33.4629C69.7633 32.7628 68.9747 33.0518 68.6737 33.1203C68.0974 33.2659 67.5165 33.3951 66.9406 33.5381C66.7624 33.5795 66.6479 33.3273 66.8124 33.2562C67.4095 32.9658 69.5314 31.9604 70.2728 32.5729C72.3721 30.9031 73.6977 28.2367 74.6625 25.7311C71.8232 27.4941 69.474 29.6693 66.9775 31.8752C65.9561 33.9238 64.768 35.8863 63.4248 37.7432C62.9891 38.3652 62.5397 38.9828 62.0765 39.5961C63.1486 40.0309 64.1267 40.584 65.3401 40.7375C65.8551 40.8021 67.6497 41.0167 68.0481 40.6096L67.9268 38.5404L67.1443 38.2017C66.7112 38.0954 66.2652 38.0507 65.8197 38.0687C65.6855 38.0692 65.6244 37.8822 65.7503 37.8302C66.202 37.6388 66.6947 37.5605 67.1847 37.6022C67.1847 37.6022 67.187 37.5839 67.2238 37.5899C68.9757 37.2782 70.8147 37.7374 72.3174 36.5467C73.2754 35.806 73.9587 34.0901 72.2112 33.7035Z" fill="white"/>
<path d="M61.615 40.1975C63.4254 41.6549 67.3223 42.2168 69.0676 40.9636C69.9154 40.3525 69.7468 39.3017 69.1108 38.5656C69.0297 38.476 68.9426 38.3918 68.8501 38.3136C70.9945 38.3262 73.4241 37.4883 74.0399 35.5726C74.6432 33.682 72.7371 32.7215 71.1051 33.0283C72.0138 32.4886 72.6121 31.5141 73.1183 30.6436C74.2174 28.8118 75.1472 26.8852 75.8966 24.8871C75.9116 24.8088 75.9046 24.7279 75.8762 24.6533C75.8472 24.5769 75.7964 24.5105 75.7299 24.4623C75.6661 24.413 75.589 24.3835 75.5085 24.3774C75.4284 24.37 75.348 24.3852 75.2764 24.4213C72.5866 25.944 69.8774 27.7817 67.8152 30.0859" fill="#3B2456"/>
<path d="M72.2449 33.7136C71.6302 33.5781 71.0593 33.7881 70.4698 33.8896C70.2031 34.5846 69.7354 35.1859 69.1251 35.6182C68.5156 36.0513 67.7907 36.2971 67.0404 36.3252C66.8467 36.3195 66.7661 36.0649 66.9386 35.9829C67.8589 35.5324 68.821 35.0579 69.4175 34.2053C69.5932 33.9877 69.7251 33.7386 69.806 33.4715C69.7842 32.7686 68.9967 33.0591 68.7076 33.1292C68.1298 33.2759 67.5503 33.4051 66.9732 33.5466C66.7948 33.5893 66.6816 33.3373 66.845 33.2648C67.4398 32.982 69.5607 31.9846 70.3066 32.5817C72.4045 30.9131 73.7351 28.2287 74.6962 25.7412C71.8558 27.5027 69.5079 29.6781 67.0099 31.8851C65.9892 33.9336 64.801 35.8958 63.4574 37.7518C63.0217 38.3739 62.5717 38.9919 62.1075 39.6059C63.1811 40.0395 64.1578 40.5938 65.3725 40.7475C65.8347 40.8054 67.3397 40.9863 67.9236 40.7261L68.4133 40.5218C69.1196 40.1095 69.306 39.3716 68.6114 38.943L67.9502 38.5465L67.1871 38.2143C66.7538 38.1093 66.3079 38.065 65.8624 38.0827C65.7284 38.0818 65.6671 37.8961 65.7932 37.8428C66.2455 37.6523 66.7384 37.5745 67.2286 37.6163C67.2451 37.6025 67.249 37.6029 67.249 37.6029L67.2557 37.6038C69.009 37.2923 70.8465 37.7512 72.3801 36.5711C73.3079 35.8146 73.9913 34.0988 72.2449 33.7136Z" fill="white"/>
<path d="M61.6322 13.3713C61.6322 13.3713 61.9284 17.7783 59.0493 21.5266L63.7706 25.5904C63.7706 25.5904 68.2274 17.7114 61.6322 13.3713Z" fill="#FA1F87"/>
<path d="M59.8353 21.4391L63.589 24.6615C64.1098 23.5014 64.4537 22.2706 64.6092 21.0096C64.9097 18.3143 64.102 16.1351 62.2044 14.518C62.1017 16.0529 61.655 18.8441 59.8353 21.4391ZM63.9362 26.492L58.2492 21.6055L58.5794 21.1753C61.2853 17.6525 61.0482 13.4482 61.0455 13.4053L60.9709 12.2468L61.95 12.8891C64.8405 14.7915 66.1564 17.6563 65.7514 21.1741C65.5497 22.8151 65.0516 24.406 64.281 25.871L63.9362 26.492Z" fill="#3B2456"/>
<path d="M35.7481 25.1232L40.1386 20.7249C36.9702 17.1986 36.915 12.7834 36.915 12.7834C30.685 17.5941 35.7481 25.1232 35.7481 25.1232Z" fill="#FA1F87"/>
<path d="M36.4404 13.9672C34.6797 15.718 34.047 17.9505 34.5604 20.615C34.8155 21.861 35.256 23.0629 35.8675 24.1814L39.3482 20.6947C37.3269 18.2357 36.6598 15.4907 36.4404 13.9672ZM35.2625 25.4435C34.3777 24.0388 33.7544 22.4886 33.4223 20.8668C32.7412 17.3894 33.8263 14.4379 36.5562 12.3277L37.4799 11.6145L37.4979 12.7766C37.4927 12.8184 37.5965 17.0272 40.5734 20.3368L40.9371 20.7412L35.6586 26.0286L35.2625 25.4435Z" fill="#3B2456"/>
<path d="M46.9483 47.9278C41.8814 45.7011 37.4957 42.1876 34.2361 37.7438C32.9892 36.0395 31.9078 34.1821 31.3649 32.1477C30.6222 29.3144 30.9564 26.3119 32.3037 23.7118C33.6712 21.1225 35.9531 19.1243 38.715 18.0975C40.7904 17.3348 43.2642 18.615 45.1416 19.7832C47.0421 20.9591 48.446 22.7806 49.0902 24.906C50.9003 23.0073 53.1422 21.6768 55.7405 21.1936C58.3388 20.7104 61.1415 21.1856 63.3377 22.6462C65.5339 24.1068 67.0707 26.5688 67.222 29.1905C67.3401 31.2221 66.6526 33.2377 65.5738 34.9625C64.495 36.6872 63.0379 38.1558 61.5154 39.5153C60.2099 40.701 58.8105 41.7811 57.3306 42.7452C55.5287 43.8943 53.5856 44.7997 51.6419 45.7105C50.0908 46.442 48.4985 47.2028 46.9483 47.9278Z" fill="#FA1F87"/>
<path opacity="0.25" d="M67.0275 30.7508C67.4785 28.0638 66.7692 25.0784 64.8892 23.0424C64.6391 22.7776 64.372 22.5293 64.0893 22.299C64.0257 22.2502 63.9523 22.2156 63.874 22.1973C63.7958 22.179 63.7146 22.1775 63.6358 22.193L63.6258 22.0482C63.1692 21.8932 62.7026 21.769 62.2292 21.6765C62.2274 21.6908 62.2255 21.7065 62.2235 21.7222C62.2298 21.8 62.2361 21.8779 62.2409 21.9569C62.0555 21.6045 61.8428 21.2668 61.6045 20.947C61.5434 20.8799 61.4594 20.8375 61.3688 20.8278C61.2781 20.8182 61.1873 20.8421 61.1135 20.8948C61.0401 20.9469 60.9878 21.0231 60.9661 21.11C60.9444 21.1968 60.9546 21.2886 60.9949 21.3688C61.2881 22.0885 61.4873 22.8422 61.5881 23.6115C61.6156 23.7983 61.6419 23.9849 61.6642 24.1711C61.6758 24.2708 61.6848 24.3702 61.6951 24.4699C61.6951 24.4699 61.6982 24.5088 61.7002 24.525L61.7148 24.6982C61.7417 25.0968 61.7452 25.4964 61.7255 25.8953C61.7165 26.0842 61.7034 26.2739 61.6825 26.4626C61.67 26.562 61.6575 26.6613 61.6451 26.7607L61.6287 26.8915L61.6237 26.9309C61.6224 26.9414 61.6206 26.9557 61.618 26.9766C61.6081 27.0551 61.5983 27.1336 61.5779 27.2107L61.5743 27.2395C61.5633 27.3271 61.5418 27.4134 61.523 27.4987C61.4742 27.738 61.418 27.9763 61.3542 28.2136C61.0997 29.1442 60.7665 30.0518 60.3581 30.9266C60.2787 31.1 60.1628 31.3393 60.0519 31.5606C59.9304 31.8018 59.8053 32.0398 59.6776 32.2776C59.6162 32.3921 59.5566 32.5042 59.5009 32.6167C59.3258 32.8897 59.1444 33.1593 58.9543 33.4237C58.7642 33.6882 58.5743 33.9407 58.3751 34.1921C58.2795 34.313 58.1813 34.4335 58.0817 34.5539L57.9834 34.6744L57.8271 34.8514C57.4101 35.3243 56.9702 35.7758 56.5076 36.2058C56.0451 36.6359 55.5561 37.052 55.0407 37.4541C54.7853 37.6515 54.5263 37.8404 54.264 38.021L54.183 38.0786L54.1671 38.0885L53.9736 38.2197C53.8345 38.3125 53.6957 38.4028 53.5545 38.4913C52.4741 39.1759 51.3347 39.7648 50.1496 40.2511C50.008 40.3104 49.8667 40.3684 49.7162 40.424L49.4978 40.5068L49.44 40.5288L49.3489 40.5612C49.026 40.6757 48.6996 40.7831 48.3696 40.8834C47.7153 41.0826 47.0494 41.2422 46.3755 41.3614C45.729 41.4809 45.0729 41.5439 44.415 41.5499C44.0684 41.5543 43.7228 41.5437 43.3782 41.5182C43.2108 41.5052 43.0453 41.4884 42.8789 41.4675L42.6267 41.4359C42.5052 41.4206 42.5382 41.4249 42.4192 41.4006C40.9747 41.1125 39.5824 40.6077 38.2907 39.9036C37.615 39.5372 36.9542 39.15 36.3022 38.744C35.6503 38.338 35.053 37.8925 34.4539 37.4401C34.1472 37.2116 33.8411 36.9791 33.54 36.7487C33.4587 36.6973 33.3602 36.6798 33.266 36.6998C33.1718 36.7198 33.0896 36.7758 33.037 36.8557C32.9873 36.9367 32.9709 37.0336 32.9913 37.1263C33.0116 37.2191 33.067 37.3008 33.1462 37.3544C34.0796 38.1358 35.0209 38.9182 35.987 39.6638C35.965 39.7371 35.9666 39.8154 35.9916 39.8878C36.0167 39.9603 36.064 40.0232 36.1268 40.0679C36.844 40.6056 37.5593 41.1471 38.2664 41.7008C38.6098 41.9684 38.9387 42.2555 39.2693 42.5388C39.6204 42.8405 40.0019 43.1142 40.3693 43.3928C41.7879 44.4556 43.2075 45.5305 44.6792 46.5229C45.3854 46.9981 46.1723 47.4502 47.0144 47.613C47.8694 47.7729 48.7527 47.6714 49.547 47.3221C50.254 47.0322 50.8872 46.6039 51.5297 46.2076L53.811 44.7972C56.6537 43.0399 59.5974 41.3432 62.0785 39.0889C64.5006 36.8777 66.4686 34.0407 67.0275 30.7508Z" fill="#232364"/>
<path d="M46.6022 48.3548C46.69 48.5119 46.8354 48.6297 47.0083 48.6835C47.1811 48.7374 47.3681 48.7232 47.5304 48.6439C51.0154 47.1758 54.5204 45.6983 57.739 43.7025C60.7645 41.8234 63.5512 39.4853 65.5588 36.5365C67.6386 33.4825 68.897 29.6093 67.55 26.0085C66.9363 24.3784 65.7559 23.0107 64.3131 22.0339C62.7206 20.9572 60.8227 20.4003 58.9151 20.2315C57.1163 20.0723 55.2136 20.2175 53.5086 20.8287C53.0649 20.9697 52.6397 21.1621 52.2417 21.4018C51.8692 21.6383 51.5113 21.8964 51.1697 22.1748C50.5432 22.6991 50.0047 23.3186 49.5741 24.0102C49.4698 23.6398 49.3358 23.2782 49.1732 22.9289C48.7852 22.1328 48.2803 21.3978 47.6749 20.7481C46.4365 19.3841 44.8344 18.3946 43.0541 17.8939C41.2155 17.3704 39.2629 17.3982 37.4429 17.9739C35.7869 18.5255 34.3067 19.4979 33.1498 20.7941C31.9751 22.0945 31.1172 23.6449 30.6419 25.3263C30.1587 27.1418 30.0683 29.0388 30.3768 30.8931C30.961 34.6187 33.0081 37.9632 35.6449 40.6269C38.5281 43.5395 42.0684 45.6842 45.6673 47.6064M65.9917 32.8932C65.6578 33.7197 65.2466 34.5132 64.7634 35.2635C64.324 35.9576 63.8401 36.6228 63.3146 37.2553C63.156 37.4506 63.1378 37.4669 62.9705 37.6559C62.8298 37.8154 62.6873 37.9716 62.5429 38.1245C62.252 38.4334 61.9528 38.7338 61.6453 39.0256C61.0466 39.5962 60.4183 40.1352 59.7663 40.65C59.4301 40.9134 59.0886 41.1691 58.7419 41.417C58.4075 41.6554 58.1772 41.8125 57.8003 42.0588C54.7786 44.0354 51.4658 45.5091 48.1413 46.9163L47.6556 47.1211C45.8936 46.1986 44.1514 45.2559 42.4663 44.2115C41.5951 43.6718 40.7487 43.1059 39.9244 42.503C39.532 42.2164 39.1465 41.9209 38.768 41.6166C38.4029 41.3197 38.2006 41.1468 37.8334 40.8231C37.1592 40.2255 36.5187 39.5917 35.9148 38.9244C35.611 38.5878 35.3174 38.241 35.034 37.8839C34.7677 37.5476 34.4946 37.1797 34.3077 36.9052C33.8095 36.1795 33.367 35.4179 32.984 34.6268C32.7908 34.2279 32.6159 33.822 32.4594 33.4091L32.4492 33.3838C32.4445 33.3725 32.4405 33.3609 32.4374 33.3491C32.4212 33.3072 32.4065 33.2642 32.3905 33.221C32.353 33.114 32.3167 33.0071 32.2807 32.8989C32.2102 32.6837 32.144 32.4668 32.082 32.2482C31.9668 31.8334 31.869 31.4147 31.7888 30.9918C31.7522 30.7919 31.7184 30.5911 31.69 30.3896C31.6744 30.2787 31.6603 30.1666 31.6461 30.0546L31.631 29.9198C31.6339 29.8963 31.6265 29.8807 31.6263 29.8713C31.6261 29.862 31.6289 29.8504 31.6224 29.827C31.5483 28.9529 31.5619 28.0739 31.6631 27.2029C31.6743 27.114 31.6855 27.025 31.696 26.9413C31.703 26.8851 31.7099 26.8301 31.717 26.7738L31.7235 26.7215C31.7646 26.5008 31.8111 26.2808 31.8641 26.0616C31.9596 25.6714 32.0772 25.287 32.2164 24.91C32.2815 24.7331 32.3517 24.5584 32.4269 24.3863C32.4517 24.3283 32.4775 24.2719 32.5036 24.214C32.5047 24.2048 32.5165 24.185 32.5225 24.1698C32.5622 24.0884 32.6019 24.007 32.6438 23.9193C32.8302 23.5558 33.037 23.2029 33.2632 22.8624C33.4829 22.5317 33.7217 22.2139 33.9782 21.9104C33.9937 21.8938 34.0707 21.8037 34.0908 21.7823C34.1609 21.7048 34.2321 21.6287 34.3047 21.5528C34.4483 21.4021 34.598 21.2562 34.7513 21.1146C35.042 20.847 35.3488 20.5971 35.6701 20.3663L35.7613 20.3019L35.8345 20.2527C35.9134 20.2015 35.9921 20.1515 36.0719 20.1031C36.2492 19.9942 36.4298 19.8915 36.6135 19.795C36.7901 19.7029 36.9671 19.6174 37.1489 19.5366C37.2255 19.5037 37.302 19.4709 37.3797 19.4395L37.5211 19.3814L37.5733 19.3614L37.6223 19.3449C38.0252 19.208 38.4374 19.099 38.8557 19.0187C39.0575 18.9815 39.2664 18.952 39.464 18.9276C39.6082 18.9111 39.7976 18.8977 40.0374 18.8892C40.4713 18.8764 40.9057 18.894 41.3372 18.942C41.4494 18.9561 41.563 18.9703 41.6766 18.9846L41.7704 18.9963L41.8681 19.0086C42.0921 19.0513 42.315 19.1018 42.5357 19.1601C42.9665 19.2747 43.3885 19.42 43.7984 19.5948L43.9737 19.6726C44.0662 19.7161 44.1597 19.7624 44.2503 19.8096C44.4506 19.9132 44.6472 20.0242 44.8367 20.1489C45.1797 20.363 45.5086 20.5986 45.8213 20.8543L45.8398 20.8673L45.8565 20.8839L45.9775 20.9882C46.0487 21.0516 46.1184 21.1161 46.1879 21.182C46.3419 21.3342 46.4914 21.4791 46.6353 21.6367C46.908 21.9341 47.1629 22.2469 47.3989 22.5735L47.4756 22.6787L47.5029 22.718C47.5615 22.8064 47.615 22.8929 47.6773 22.9844C47.7917 23.1635 47.9031 23.3448 48.0115 23.5285C48.2149 23.8742 48.4008 24.2323 48.5841 24.5888C48.7606 24.9268 48.9084 25.2786 49.0261 25.6407C49.0577 25.7467 49.1289 25.8367 49.2252 25.8926C49.3214 25.9485 49.4354 25.9661 49.544 25.9416C49.6526 25.9171 49.7476 25.8524 49.8097 25.7608C49.8717 25.6692 49.896 25.5576 49.8778 25.4486C49.8615 25.3429 49.8438 25.2384 49.8261 25.1338C50.1404 24.5385 50.5713 24.0113 51.0936 23.5829C51.3748 23.3449 51.6745 23.1293 51.99 22.9381C52.3343 22.7459 52.6907 22.5757 53.0571 22.4288C53.4098 22.2742 53.7724 22.1421 54.1423 22.0335C54.5338 21.9174 54.9312 21.8219 55.3329 21.7472C55.5293 21.7107 55.7264 21.6795 55.923 21.6524C56.0281 21.6377 56.1328 21.6256 56.2376 21.6135L56.3736 21.5986L56.4427 21.5928C56.8854 21.5606 57.3277 21.5416 57.7712 21.5454C58.6611 21.5477 59.5483 21.6478 60.4163 21.844C60.8592 21.9481 61.2952 22.0796 61.7217 22.2377C61.9292 22.3159 62.1344 22.4001 62.3377 22.4902C62.3377 22.4902 62.4907 22.5652 62.5084 22.574C62.6107 22.6241 62.7101 22.6765 62.8093 22.7301C63.1664 22.9248 63.5101 23.1427 63.8381 23.3825C63.9719 23.4817 64.1052 23.5835 64.2327 23.6898L64.3077 23.755L64.4078 23.8447C64.4909 23.9202 64.5723 23.9981 64.647 24.0766C64.9274 24.3512 65.1864 24.6467 65.4214 24.9604L65.4799 25.0393C65.489 25.0524 65.5254 25.1035 65.5344 25.1179C65.591 25.2007 65.6474 25.2862 65.6984 25.371C65.8038 25.5436 65.9024 25.7199 65.9943 25.8997C66.0814 26.0714 66.16 26.2474 66.2329 26.4253C66.2504 26.4673 66.2666 26.5091 66.2828 26.551L66.2909 26.572C66.2897 26.5812 66.2989 26.5943 66.3035 26.6108C66.3385 26.7175 66.3759 26.8245 66.4078 26.9335C66.5218 27.3127 66.6078 27.6996 66.665 28.091C66.6778 28.1817 66.6895 28.2708 66.6996 28.3611L66.7037 28.3921L66.7001 28.421L66.7114 28.5553C66.7248 28.7589 66.7336 28.9566 66.7326 29.1677C66.7321 29.5763 66.7055 29.9842 66.6531 30.3893C66.6242 30.6195 66.6033 30.7325 66.565 30.9203C66.5188 31.1497 66.4646 31.378 66.4027 31.6041C66.2865 32.041 66.1454 32.4709 65.9798 32.8917L65.9917 32.8932Z" fill="#3B2456"/>
<path d="M49.0162 28.9706C48.7969 28.9431 48.572 28.9295 48.3457 28.9051C48.3274 29.0516 48.3089 29.1981 48.3036 29.3475C48.2764 29.9493 48.3692 30.5507 48.5766 31.1175C48.7839 31.6843 49.1018 32.2054 49.5121 32.6509C49.9225 33.0965 50.4171 33.4577 50.9679 33.7141C51.5187 33.9705 52.1148 34.117 52.7222 34.1453C53.3294 34.1736 53.9361 34.0832 54.5075 33.8791C55.0788 33.6751 55.6039 33.3613 56.0524 32.9559C56.501 32.5505 56.8643 32.0614 57.1217 31.5164C57.3791 30.9714 57.5255 30.3811 57.5526 29.7795C57.5738 29.2986 57.5183 28.8173 57.388 28.3532C54.7658 29.2838 51.6807 29.253 49.0162 28.9706Z" fill="#1A1A1A"/>
<path d="M49.0162 28.9704L48.6067 28.9309C48.586 29.0733 48.5724 29.2165 48.5662 29.3603C48.5406 29.9278 48.6281 30.495 48.8237 31.0296C49.0192 31.5641 49.3192 32.0555 49.7061 32.4756C50.0931 32.8958 50.5595 33.2364 51.079 33.4782C51.5984 33.72 52.1607 33.8581 52.7335 33.8848C53.8903 33.9383 55.02 33.5346 55.8745 32.7623C56.7289 31.9899 57.2381 30.9124 57.29 29.7663C57.3106 29.3177 57.2601 28.8684 57.1404 28.4349C54.572 29.2793 51.5974 29.2437 49.0162 28.9704Z" fill="white"/>
<path d="M51.5613 29.1369C51.5055 29.2897 51.4736 29.4501 51.4668 29.6126C51.4476 30.0434 51.6019 30.4647 51.8955 30.7837C52.1892 31.1028 52.5984 31.2936 53.0332 31.3144C53.4682 31.3347 53.893 31.183 54.2144 30.8927C54.5358 30.6024 54.7273 30.1973 54.747 29.7664C54.7594 29.5008 54.7056 29.2362 54.5901 28.996C53.5856 29.1172 52.5732 29.1643 51.5613 29.1369Z" fill="#3B2456"/>
<path d="M51.5228 30.0623C51.5177 30.1794 51.5598 30.2939 51.6397 30.3807C51.7196 30.4674 51.8308 30.5193 51.949 30.525C52.0672 30.5299 52.1825 30.4885 52.2697 30.4096C52.357 30.3307 52.4092 30.2208 52.415 30.1037C52.4175 30.0458 52.4085 29.9878 52.3884 29.9333C52.3684 29.8787 52.3377 29.8287 52.2981 29.7858C52.2585 29.743 52.2107 29.7082 52.1576 29.6836C52.1045 29.659 52.0471 29.6451 51.9886 29.6425C51.8706 29.6372 51.7554 29.6782 51.6681 29.7569C51.5809 29.8356 51.5286 29.9454 51.5228 30.0623Z" fill="white"/>
<path d="M45.1583 28.8987C43.8454 29.0688 42.6602 29.15 41.3607 28.8382C40.7605 28.6938 40.0885 28.47 39.5203 28.3908C39.2103 28.3474 38.905 28.2753 38.6084 28.1755C38.4874 28.538 38.4171 28.9154 38.3994 29.2971C38.3494 30.4107 38.7478 31.4993 39.5072 32.3236C40.2666 33.1479 41.3246 33.6403 42.4486 33.6925C43.5722 33.7443 44.6695 33.352 45.4995 32.6019C46.3295 31.8518 46.8242 30.8051 46.8749 29.6919C46.8916 29.303 46.8533 28.9137 46.7612 28.5351C46.2377 28.6985 45.7017 28.8201 45.1583 28.8987Z" fill="#1A1A1A"/>
<path d="M45.1585 28.8979C43.8455 29.068 42.6604 29.1492 41.3609 28.8374C40.7607 28.693 40.0887 28.4693 39.5205 28.39C39.29 28.3583 39.0621 28.3106 38.8383 28.2474C38.7233 28.5901 38.6564 28.9469 38.6395 29.3079C38.5926 30.3581 38.9686 31.3847 39.6847 32.1621C40.4008 32.9395 41.3985 33.4041 42.4584 33.4538C43.5186 33.5031 44.5541 33.1331 45.3371 32.4253C46.1201 31.7175 46.5866 30.7298 46.6339 29.6795C46.6494 29.318 46.6144 28.9559 46.53 28.6036C46.0808 28.7349 45.6224 28.8332 45.1585 28.8979Z" fill="white"/>
<path d="M42.2743 28.9965C42.2483 29.0968 42.2327 29.1994 42.2279 29.3028C42.2105 29.6978 42.352 30.0839 42.6214 30.3763C42.8907 30.6686 43.266 30.8435 43.6646 30.8623C44.0632 30.8804 44.4523 30.741 44.7465 30.4747C45.0408 30.2084 45.216 29.8369 45.2337 29.442C45.2412 29.2583 45.2142 29.0747 45.1541 28.9006C44.1563 29.0279 43.2318 29.1046 42.2743 28.9965Z" fill="#3B2456"/>
<path d="M43.0674 29.8076C43.0651 29.8608 43.0522 29.913 43.0295 29.9612C43.0069 30.0095 42.9747 30.0527 42.9351 30.0886C42.8955 30.1245 42.8491 30.1522 42.7986 30.1702C42.7481 30.1883 42.6944 30.1963 42.6407 30.1937C42.5324 30.1886 42.4303 30.1412 42.357 30.0618C42.2838 29.9823 42.2452 29.8774 42.2498 29.77C42.2551 29.6629 42.303 29.5625 42.3829 29.4904C42.4628 29.4182 42.5683 29.3804 42.6764 29.3851C42.73 29.3875 42.7826 29.4003 42.8313 29.4228C42.88 29.4453 42.9237 29.4771 42.96 29.5163C42.9963 29.5555 43.0244 29.6014 43.0429 29.6514C43.0613 29.7013 43.0697 29.7545 43.0674 29.8076Z" fill="white"/>
<path d="M59.3555 27.8401C59.3555 27.8401 51.0246 29.3713 47.9858 28.2554C47.9858 28.2554 41.6726 29.2797 37.3674 27.791C37.3674 27.791 40.1552 30.1603 47.6106 28.8833C47.6106 28.8833 55.327 30.3587 59.3555 27.8401Z" fill="#3B2456"/>
<path d="M60.0151 25.5141C60.0151 25.5141 58.9211 22.7196 57.3835 22.9692C55.8459 23.2188 50.3882 26.8973 50.3882 26.8973C50.3882 26.8973 52.456 23.6931 56.0122 22.2033C59.5683 20.7136 60.049 24.2814 60.0151 25.5141Z" fill="#3B2456"/>
<path d="M45.986 27.5514C45.986 27.5514 40.9712 23.7536 39.7503 24.1731C38.5295 24.5926 38.6049 26.0223 38.6049 26.0223C38.6049 26.0223 39.1011 24.7826 39.9595 24.9222C40.8178 25.0617 45.986 27.5514 45.986 27.5514Z" fill="#3B2456"/>
<path d="M51.2341 43.1555C51.2341 43.1555 47.7298 41.4844 46.373 43.5861C46.373 43.5861 45.2684 41.8386 42.9667 42.7377C43.4292 42.3795 43.9808 42.1516 44.5636 42.0781C45.1464 42.0046 45.7387 42.0882 46.2784 42.32C46.2784 42.32 49.1547 40.9137 51.2341 43.1555Z" fill="#3B2456"/>
<path d="M40.978 36.7651C42.8913 37.9896 47.0695 38.4591 50.5649 37.8493C54.4602 37.174 56.4967 35.7687 56.4967 35.7687C56.4967 35.7687 55.5508 38.1558 54.4312 39.6283C53.3116 41.1008 53.1366 41.6091 51.4422 40.7668C49.7479 39.9245 47.351 38.4281 44.3143 38.4179C41.2776 38.4076 41.0138 39.27 40.9407 39.0297C40.8924 38.8695 40.675 37.7155 40.529 36.9652C40.6868 36.9181 40.8378 36.8509 40.978 36.7651Z" fill="#3B2456"/>
<path d="M51.687 40.2806C51.4572 40.1667 51.2143 40.0393 50.9587 39.9063C50.0772 39.4264 49.1666 39.0016 48.2319 38.6342C49.0463 38.6009 49.8575 38.5158 50.6607 38.3795C52.2768 38.1118 53.852 37.6443 55.3499 36.988C54.9681 37.7965 54.5121 38.5683 53.9876 39.2938C53.8946 39.415 53.8078 39.5302 53.7271 39.6397C53.1341 40.4316 52.9535 40.6309 52.6769 40.6227C52.4718 40.6223 52.146 40.5029 51.687 40.2806ZM41.1952 37.5031C41.6023 37.7004 42.0249 37.8645 42.4588 37.9938C42.0793 38.051 41.7073 38.1487 41.3492 38.2851C41.2959 38.0685 41.2482 37.8074 41.1944 37.5096L41.1952 37.5031Z" fill="white"/>
<path d="M54.3079 35.4265C54.3079 35.4265 56.9153 34.9565 57.8135 35.8477C58.7117 36.7389 58.1366 37.1636 58.1366 37.1636C58.1366 37.1636 57.7803 35.6096 54.3079 35.4265Z" fill="#3B2456"/>
<path d="M45.2248 38.2707C45.2248 38.2707 42.6384 37.8134 41.7969 38.1064C40.9554 38.3995 40.7377 38.8199 40.6628 39.0111C40.6163 39.1361 40.5821 39.2653 40.5607 39.3969C40.5607 39.3969 40.2899 39.1715 40.2742 39.2971C40.2584 39.4227 40.4519 39.9439 40.558 39.8894C40.6641 39.835 40.5381 39.374 41.3843 38.873C42.2304 38.3719 44.7159 38.2959 44.7159 38.2959L45.2248 38.2707Z" fill="#3B2456"/>
<path d="M54.8405 38.8897C54.8405 38.8897 53.3216 39.418 50.8429 39.1722C50.8429 39.1722 52.1664 39.6239 54.1044 39.475L54.8405 38.8897Z" fill="#3B2456"/>
</g>
<defs>
<clipPath id="clip0_2077_19499">
<rect width="44.7512" height="32.0943" fill="white" transform="translate(2.74414 29.3955) rotate(-18.0771)"/>
</clipPath>
<clipPath id="clip1_2077_19499">
<rect width="52.8453" height="37.8991" fill="white" transform="translate(24.7917 7.70996) rotate(7.14942)"/>
</clipPath>
</defs>
</svg>
