<svg width="17" height="18" viewBox="0 0 17 18" fill="none" xmlns="http://www.w3.org/2000/svg">
<g id="mdi:gift">
<path id="Vector" d="M6.41751 1.86722C5.07876 1.86013 3.77543 3.1493 4.37043 4.75013H2.12501C1.74929 4.75013 1.38895 4.89939 1.12328 5.16507C0.857599 5.43074 0.708344 5.79108 0.708344 6.1668V7.58347C0.708344 7.77133 0.782971 7.9515 0.915809 8.08433C1.04865 8.21717 1.22882 8.2918 1.41668 8.2918H7.79168V6.1668H9.20834V8.2918H15.5833C15.7712 8.2918 15.9514 8.21717 16.0842 8.08433C16.217 7.9515 16.2917 7.77133 16.2917 7.58347V6.1668C16.2917 5.79108 16.1424 5.43074 15.8767 5.16507C15.6111 4.89939 15.2507 4.75013 14.875 4.75013H12.6296C13.4583 2.43388 10.3417 0.797633 8.90376 2.79513L8.50001 3.33347L8.09626 2.78097C7.65001 2.15055 7.03376 1.8743 6.41751 1.86722ZM6.37501 3.33347C7.00543 3.33347 7.32418 4.09847 6.87793 4.54472C6.43168 4.99097 5.66668 4.67222 5.66668 4.0418C5.66668 3.85394 5.7413 3.67377 5.87414 3.54093C6.00698 3.40809 6.18715 3.33347 6.37501 3.33347ZM10.625 3.33347C11.2554 3.33347 11.5742 4.09847 11.1279 4.54472C10.6817 4.99097 9.91668 4.67222 9.91668 4.0418C9.91668 3.85394 9.9913 3.67377 10.1241 3.54093C10.257 3.40809 10.4371 3.33347 10.625 3.33347ZM1.41668 9.00013V14.6668C1.41668 15.0425 1.56593 15.4029 1.83161 15.6685C2.09729 15.9342 2.45762 16.0835 2.83334 16.0835H14.1667C14.5424 16.0835 14.9027 15.9342 15.1684 15.6685C15.4341 15.4029 15.5833 15.0425 15.5833 14.6668V9.00013H9.20834V14.6668H7.79168V9.00013H1.41668Z" fill="white"/>
</g>
</svg>
